<mxfile host="app.diagrams.net" modified="2023-06-14T00:40:53.538Z" agent="Mozilla/5.0 (X11; Ubuntu; Linux x86_64; rv:109.0) Gecko/20100101 Firefox/114.0" etag="VDXfU4wH9lbs54JlKsYD" version="21.3.8" type="device">
  <diagram name="PÃ¡gina-1" id="6blwWgKzss2aHAgknRdg">
    <mxGraphModel dx="629" dy="604" grid="1" gridSize="10" guides="1" tooltips="1" connect="1" arrows="0" fold="1" page="1" pageScale="1" pageWidth="827" pageHeight="1169" math="0" shadow="0">
      <root>
        <mxCell id="0" />
        <mxCell id="1" parent="0" />
        <mxCell id="56hVhcrLjOhztStNG_0h-1" value="Arquivo" style="swimlane;fontStyle=0;childLayout=stackLayout;horizontal=1;startSize=30;horizontalStack=0;resizeParent=1;resizeParentMax=0;resizeLast=0;collapsible=1;marginBottom=0;whiteSpace=wrap;html=1;" vertex="1" parent="1">
          <mxGeometry x="344" y="750" width="140" height="100" as="geometry" />
        </mxCell>
        <mxCell id="56hVhcrLjOhztStNG_0h-4" value="id:&amp;nbsp; string" style="text;strokeColor=none;fillColor=none;align=left;verticalAlign=middle;spacingLeft=4;spacingRight=4;overflow=hidden;points=[[0,0.5],[1,0.5]];portConstraint=eastwest;rotatable=0;whiteSpace=wrap;html=1;" vertex="1" parent="56hVhcrLjOhztStNG_0h-1">
          <mxGeometry y="30" width="140" height="40" as="geometry" />
        </mxCell>
        <mxCell id="56hVhcrLjOhztStNG_0h-2" value="tipo : string" style="text;strokeColor=none;fillColor=none;align=left;verticalAlign=middle;spacingLeft=4;spacingRight=4;overflow=hidden;points=[[0,0.5],[1,0.5]];portConstraint=eastwest;rotatable=0;whiteSpace=wrap;html=1;" vertex="1" parent="56hVhcrLjOhztStNG_0h-1">
          <mxGeometry y="70" width="140" height="30" as="geometry" />
        </mxCell>
        <mxCell id="56hVhcrLjOhztStNG_0h-5" value="Caixa " style="swimlane;fontStyle=0;childLayout=stackLayout;horizontal=1;startSize=20;horizontalStack=0;resizeParent=1;resizeParentMax=0;resizeLast=0;collapsible=1;marginBottom=0;whiteSpace=wrap;html=1;" vertex="1" parent="1">
          <mxGeometry x="326" y="440" width="176" height="180" as="geometry" />
        </mxCell>
        <mxCell id="56hVhcrLjOhztStNG_0h-6" value="id: string" style="text;strokeColor=none;fillColor=none;align=left;verticalAlign=middle;spacingLeft=4;spacingRight=4;overflow=hidden;points=[[0,0.5],[1,0.5]];portConstraint=eastwest;rotatable=0;whiteSpace=wrap;html=1;" vertex="1" parent="56hVhcrLjOhztStNG_0h-5">
          <mxGeometry y="20" width="176" height="30" as="geometry" />
        </mxCell>
        <mxCell id="56hVhcrLjOhztStNG_0h-7" value="arquivos: Array&amp;lt;Arquivo&amp;gt;" style="text;strokeColor=none;fillColor=none;align=left;verticalAlign=middle;spacingLeft=4;spacingRight=4;overflow=hidden;points=[[0,0.5],[1,0.5]];portConstraint=eastwest;rotatable=0;whiteSpace=wrap;html=1;" vertex="1" parent="56hVhcrLjOhztStNG_0h-5">
          <mxGeometry y="50" width="176" height="30" as="geometry" />
        </mxCell>
        <mxCell id="56hVhcrLjOhztStNG_0h-8" value="adicionarArquivo (arquivo : Arquivo)=&amp;gt; void" style="text;strokeColor=default;fillColor=none;align=left;verticalAlign=middle;spacingLeft=4;spacingRight=4;overflow=hidden;points=[[0,0.5],[1,0.5]];portConstraint=eastwest;rotatable=0;whiteSpace=wrap;html=1;" vertex="1" parent="56hVhcrLjOhztStNG_0h-5">
          <mxGeometry y="80" width="176" height="50" as="geometry" />
        </mxCell>
        <mxCell id="56hVhcrLjOhztStNG_0h-43" value="visualizarArquivos() =&amp;gt; void" style="text;strokeColor=default;fillColor=none;align=left;verticalAlign=middle;spacingLeft=4;spacingRight=4;overflow=hidden;points=[[0,0.5],[1,0.5]];portConstraint=eastwest;rotatable=0;whiteSpace=wrap;html=1;" vertex="1" parent="56hVhcrLjOhztStNG_0h-5">
          <mxGeometry y="130" width="176" height="50" as="geometry" />
        </mxCell>
        <mxCell id="56hVhcrLjOhztStNG_0h-13" value="Estante" style="swimlane;fontStyle=0;childLayout=stackLayout;horizontal=1;startSize=30;horizontalStack=0;resizeParent=1;resizeParentMax=0;resizeLast=0;collapsible=1;marginBottom=0;whiteSpace=wrap;html=1;" vertex="1" parent="1">
          <mxGeometry x="299" y="80" width="251" height="210" as="geometry" />
        </mxCell>
        <mxCell id="56hVhcrLjOhztStNG_0h-14" value="&lt;div&gt;prateleiras : Record&amp;lt;number, Caixa[]&amp;gt;&lt;br&gt;&lt;/div&gt;" style="text;strokeColor=none;fillColor=none;align=left;verticalAlign=middle;spacingLeft=4;spacingRight=4;overflow=hidden;points=[[0,0.5],[1,0.5]];portConstraint=eastwest;rotatable=0;whiteSpace=wrap;html=1;" vertex="1" parent="56hVhcrLjOhztStNG_0h-13">
          <mxGeometry y="30" width="251" height="40" as="geometry" />
        </mxCell>
        <mxCell id="56hVhcrLjOhztStNG_0h-16" value="adicionarCaixa(caixa: Caixa, numPrateleira: number) =&amp;gt; void" style="text;strokeColor=default;fillColor=none;align=left;verticalAlign=middle;spacingLeft=4;spacingRight=4;overflow=hidden;points=[[0,0.5],[1,0.5]];portConstraint=eastwest;rotatable=0;whiteSpace=wrap;html=1;" vertex="1" parent="56hVhcrLjOhztStNG_0h-13">
          <mxGeometry y="70" width="251" height="30" as="geometry" />
        </mxCell>
        <mxCell id="56hVhcrLjOhztStNG_0h-41" value="visualizarPrateleiras()=&amp;gt;void" style="text;strokeColor=default;fillColor=none;align=left;verticalAlign=middle;spacingLeft=4;spacingRight=4;overflow=hidden;points=[[0,0.5],[1,0.5]];portConstraint=eastwest;rotatable=0;whiteSpace=wrap;html=1;" vertex="1" parent="56hVhcrLjOhztStNG_0h-13">
          <mxGeometry y="100" width="251" height="30" as="geometry" />
        </mxCell>
        <mxCell id="56hVhcrLjOhztStNG_0h-42" value="visualizarUmaPrateleira(numPrateleira)=&amp;gt; void" style="text;strokeColor=default;fillColor=none;align=left;verticalAlign=middle;spacingLeft=4;spacingRight=4;overflow=hidden;points=[[0,0.5],[1,0.5]];portConstraint=eastwest;rotatable=0;whiteSpace=wrap;html=1;" vertex="1" parent="56hVhcrLjOhztStNG_0h-13">
          <mxGeometry y="130" width="251" height="30" as="geometry" />
        </mxCell>
        <mxCell id="56hVhcrLjOhztStNG_0h-21" value="resgatarCaixa(idCaixa: string)=&amp;gt; void" style="text;strokeColor=none;fillColor=none;align=left;verticalAlign=middle;spacingLeft=4;spacingRight=4;overflow=hidden;points=[[0,0.5],[1,0.5]];portConstraint=eastwest;rotatable=0;whiteSpace=wrap;html=1;" vertex="1" parent="56hVhcrLjOhztStNG_0h-13">
          <mxGeometry y="160" width="251" height="50" as="geometry" />
        </mxCell>
        <mxCell id="56hVhcrLjOhztStNG_0h-26" value="" style="endArrow=open;html=1;endSize=12;startArrow=diamondThin;startSize=14;startFill=0;edgeStyle=orthogonalEdgeStyle;rounded=0;" edge="1" parent="1" source="56hVhcrLjOhztStNG_0h-1" target="56hVhcrLjOhztStNG_0h-5">
          <mxGeometry relative="1" as="geometry">
            <mxPoint x="270" y="330" as="sourcePoint" />
            <mxPoint x="430" y="330" as="targetPoint" />
          </mxGeometry>
        </mxCell>
        <mxCell id="56hVhcrLjOhztStNG_0h-27" value="1" style="edgeLabel;resizable=0;html=1;align=left;verticalAlign=top;" connectable="0" vertex="1" parent="56hVhcrLjOhztStNG_0h-26">
          <mxGeometry x="-1" relative="1" as="geometry">
            <mxPoint x="16" y="-30" as="offset" />
          </mxGeometry>
        </mxCell>
        <mxCell id="56hVhcrLjOhztStNG_0h-29" value="1...N" style="text;html=1;align=center;verticalAlign=middle;resizable=0;points=[];autosize=1;strokeColor=none;fillColor=none;" vertex="1" parent="1">
          <mxGeometry x="350" y="410" width="50" height="30" as="geometry" />
        </mxCell>
        <mxCell id="56hVhcrLjOhztStNG_0h-36" value="" style="endArrow=block;endFill=1;html=1;edgeStyle=orthogonalEdgeStyle;align=left;verticalAlign=top;rounded=0;exitX=0.455;exitY=-0.012;exitDx=0;exitDy=0;exitPerimeter=0;" edge="1" parent="1" source="56hVhcrLjOhztStNG_0h-5" target="56hVhcrLjOhztStNG_0h-13">
          <mxGeometry x="0.1703" y="-51" relative="1" as="geometry">
            <mxPoint x="250" y="310" as="sourcePoint" />
            <mxPoint x="410" y="310" as="targetPoint" />
            <Array as="points">
              <mxPoint x="406" y="260" />
              <mxPoint x="406" y="260" />
            </Array>
            <mxPoint x="-1" y="10" as="offset" />
          </mxGeometry>
        </mxCell>
        <mxCell id="56hVhcrLjOhztStNG_0h-38" value="1...N" style="text;html=1;align=center;verticalAlign=middle;resizable=0;points=[];autosize=1;strokeColor=none;fillColor=none;" vertex="1" parent="1">
          <mxGeometry x="414" y="300" width="50" height="30" as="geometry" />
        </mxCell>
      </root>
    </mxGraphModel>
  </diagram>
</mxfile>
